<?xml version="1.0" encoding="utf-8"?>
<!-- Generator: Adobe Illustrator 28.3.0, SVG Export Plug-In . SVG Version: 6.00 Build 0)  -->
<svg version="1.1" id="Layer_1" xmlns="http://www.w3.org/2000/svg" xmlns:xlink="http://www.w3.org/1999/xlink" x="0px" y="0px"
	 viewBox="0 0 100 100" style="enable-background:new 0 0 100 100;" xml:space="preserve">
<style type="text/css">
	.st0{fill:url(#SVGID_1_);}
</style>
<linearGradient id="SVGID_1_" gradientUnits="userSpaceOnUse" x1="13.7069" y1="66.4669" x2="91.7936" y2="66.4669">
	<stop  offset="0" style="stop-color:#6336FA"/>
	<stop  offset="1" style="stop-color:#B86FD0"/>
</linearGradient>
<path class="st0" d="M91.7,35.6C90.6,18.2,76,4.6,58.6,4.6H47c-17.9,0-32.2,13.9-33.1,31.9c-0.1,0.5-0.2,1-0.2,1.5l0.3,84.3
	c0,3.4,2.7,6.1,6.2,6.1c3.4,0,6.2-2.7,6.2-6.2l-0.3-58.3c5.9,4.8,13.1,7.4,20.9,7.4c0.3,0,0.6,0,0.9,0L59.4,71
	c9.1-0.2,17.5-4.1,23.7-10.8C89.2,53.5,92.3,44.7,91.7,35.6z M74,51.9c-3.9,4.2-9.1,6.7-14.8,6.8L47.6,59c-5.8,0.2-11.2-2-15.2-6.1
	c-4.1-4.1-6.2-9.5-6.1-15.6c0.3-11.4,9.4-20.4,20.8-20.4h11.6c10.9,0,20.1,8.6,20.8,19.5C79.8,42.2,77.8,47.6,74,51.9z"/>
</svg>
