<?xml version="1.0" encoding="utf-8"?>
<!-- Generator: Adobe Illustrator 28.3.0, SVG Export Plug-In . SVG Version: 6.00 Build 0)  -->
<svg version="1.1" id="Layer_1" xmlns="http://www.w3.org/2000/svg" xmlns:xlink="http://www.w3.org/1999/xlink" x="0px" y="0px"
	 viewBox="0 0 194 127" style="enable-background:new 0 0 194 127;" xml:space="preserve">
<style type="text/css">
	.st0{fill:#FFFFFF;}
</style>
<path class="st0" d="M76.56,39.48c-1.01-15.31-13.79-27.29-29.1-27.29H37.28c-15.7,0-28.34,12.17-29.1,28.01
	C8.07,40.6,8,41.07,8,41.5l0.29,74.12c0,3,2.42,5.38,5.42,5.38s5.42-2.42,5.42-5.42l-0.22-51.3c5.16,4.22,11.55,6.53,18.34,6.53
	c0.25,0,0.54,0,0.79-0.04l10.14-0.25c8.01-0.18,15.38-3.57,20.79-9.46C74.35,55.15,77.06,47.5,76.56,39.48z M60.96,53.74
	c-3.39,3.72-8.01,5.85-13.03,5.96l-10.18,0.29c-5.09,0.18-9.82-1.81-13.39-5.38c-3.57-3.57-5.49-8.34-5.38-13.68
	c0.25-10.04,8.27-17.91,18.3-17.91h10.18c9.6,0,17.65,7.55,18.27,17.15C66.05,45.22,64.35,50.02,60.96,53.74z"/>
<path class="st0" d="M174.68,70.86c-3,0-5.42-2.42-5.42-5.42V16.41c0-3,2.42-5.42,5.42-5.42s5.42,2.42,5.42,5.42v49.03
	C180.1,68.4,177.68,70.86,174.68,70.86z"/>
<path class="st0" d="M121.14,73.24c-9.68,0-16.68-3.54-16.79-3.57c-1.95-1.05-18.99-10.69-18.48-29.6
	c0.32-12.71,8.45-24.19,20.18-28.56c2.64-0.97,5.92-1.62,9.53-1.91c10.61-0.83,25.13,1.73,31.16,11.62
	c1.55,2.56,0.76,5.88-1.81,7.44c-2.53,1.55-5.88,0.76-7.44-1.81c-3.21-5.27-13.18-7.08-21.08-6.46c-2.6,0.18-4.91,0.65-6.61,1.26
	c-7.51,2.78-12.92,10.47-13.14,18.7c-0.32,12.38,11.41,19.03,12.78,19.75c0.04,0,11.16,5.34,22.96-0.14
	c2.27-1.05,4.66-3.07,7.36-6.17c1.73-2.02,1.05-4.15,0.69-4.95c-0.29-0.65-1.37-2.74-4.3-2.74l-19.46,0.22c0,0-0.04,0-0.07,0
	c-2.96,0-5.38-2.38-5.42-5.34c-0.04-3,2.38-5.45,5.34-5.49l19.46-0.22c0.07,0,0.11,0,0.18,0c6.1,0,11.48,3.43,14.08,9.03
	c2.6,5.6,1.7,11.95-2.31,16.61c-3.75,4.33-7.26,7.15-10.97,8.88C131.36,72.37,125.94,73.24,121.14,73.24z"/>
</svg>
