<?xml version="1.0" encoding="utf-8"?>
<!-- Generator: Adobe Illustrator 28.3.0, SVG Export Plug-In . SVG Version: 6.00 Build 0)  -->
<svg version="1.1" id="Layer_1" xmlns="http://www.w3.org/2000/svg" xmlns:xlink="http://www.w3.org/1999/xlink" x="0px" y="0px"
	 viewBox="0 0 100 100" style="enable-background:new 0 0 100 100;" xml:space="preserve">
<style type="text/css">
	.st0{fill:#231F20;stroke:#FFFFFF;stroke-miterlimit:10;}
	.st1{fill:#FFFFFF;}
</style>
<circle class="st0" cx="50" cy="50" r="50"/>
<path class="st1" d="M43.5,48.6c-0.4-5.8-5.2-10.3-11-10.3h-3.9c-5.9,0-10.7,4.6-11,10.6c0,0.1-0.1,0.3-0.1,0.5l0.1,27.9
	c0,1.1,0.9,2,2,2s2.1-0.9,2.1-2L21.9,58c1.9,1.6,4.4,2.5,6.9,2.5c0.1,0,0.2,0,0.3,0l3.8-0.1c3-0.1,5.8-1.4,7.9-3.6
	C42.7,54.6,43.7,51.7,43.5,48.6z M37.6,54c-1.3,1.4-3,2.2-4.9,2.2l-3.9,0.1c-1.9,0.1-3.7-0.7-5.1-2c-1.4-1.3-1.9-3.1-1.9-5.1
	c0.1-3.8,3.1-6.8,6.9-6.8h3.9c3.6,0,6.7,2.9,6.9,6.5C39.6,50.8,38.9,52.6,37.6,54z M80.5,60.5c-1.1,0-2.1-0.9-2.1-2V40
	c0-1.1,0.9-2,2.1-2c1.2,0,2.1,0.9,2.1,2v18.4C82.6,59.6,81.7,60.5,80.5,60.5z M60.4,61.4c-3.7,0-6.3-1.3-6.3-1.4
	c-0.7-0.4-7.2-4-7-11.2c0.1-4.8,3.2-9.1,7.6-10.8c1-0.4,2.2-0.6,3.6-0.7c4-0.3,9.5,0.6,11.8,4.4c0.6,1,0.3,2.2-0.7,2.8
	c-1,0.6-2.2,0.3-2.8-0.7c-1.2-2-5-2.7-8-2.4c-1,0.1-1.8,0.2-2.5,0.5c-2.8,1.1-4.9,4-5,7.1c-0.1,4.7,4.3,7.2,4.8,7.5c0,0,4.2,2,8.7,0
	c0.9-0.4,1.8-1.2,2.8-2.3c0.7-0.8,0.4-1.6,0.3-1.9c-0.1-0.2-0.5-1-1.6-1l-7.4-0.1l0,0c-1.1,0-2-0.9-2-2s0.9-2.1,2-2.1l7.3-0.1
	c0,0,0,0,0.1,0c2.3,0,4.3,1.3,5.3,3.4c1,2.1,0.6,4.5-0.9,6.3c-1.4,1.6-2.7,2.7-4.2,3.4C64.2,61.1,62.1,61.4,60.4,61.4z"/>
</svg>
